<svg width="1100" height="300" viewBox="0 0 1100 300" fill="none" xmlns="http://www.w3.org/2000/svg">
<path d="M137.055 67.7492C147.794 67.7492 156.614 71.5844 163.518 78.8712C170.421 86.1581 173.489 95.746 173.489 107.635V162.861C173.489 168.614 168.887 173.216 163.134 173.216H162.751C156.998 173.216 152.396 168.614 152.396 162.861V113.004C152.396 104.567 150.478 98.4306 147.027 93.8284C143.575 89.2262 138.589 86.9251 132.069 86.9251C125.166 86.9251 119.413 89.6097 114.811 95.3625C110.209 101.115 107.908 108.019 107.908 116.839V162.861C107.908 168.614 103.306 173.216 97.5528 173.216C91.8001 173.216 87.1979 168.614 87.1979 162.861V113.004C87.1979 104.567 85.6638 98.4306 82.2122 93.8284C78.7605 89.2262 73.7748 86.9251 67.255 86.9251C60.3517 86.9251 54.5989 89.6097 49.9967 95.3625C45.3945 101.115 43.0934 108.019 43.0934 116.839V162.861C43.0934 168.614 38.4912 173.216 32.7385 173.216H32.355C26.6022 173.216 22 168.614 22 162.861V77.7207C22 73.1185 25.4517 69.2833 29.6703 68.8998C34.2725 68.1328 38.8747 71.5844 39.6418 76.1866L40.7923 83.0899C44.6275 78.1042 49.6132 74.269 54.9825 71.5844C60.7352 68.8998 66.488 67.3657 72.6242 67.3657C79.5275 67.3657 85.6638 68.8998 91.0331 72.3514C96.4023 75.4196 100.621 80.0218 103.689 85.7745C107.524 80.0218 112.51 75.8031 118.263 72.3514C124.016 69.2833 130.535 67.7492 137.055 67.7492Z" fill="#465B9F"/>
<path d="M276.656 70.8172C281.641 73.1183 283.942 79.2546 281.641 84.2403L240.989 174.75C235.236 187.79 229.1 196.994 222.963 201.98C216.827 206.966 208.39 209.65 198.035 209.65H196.884C191.515 209.65 187.296 205.432 187.296 200.062C187.296 194.693 191.515 190.475 196.884 190.475C198.418 190.475 199.185 190.475 199.952 190.475C204.938 190.091 208.39 188.94 211.074 186.639C214.142 183.955 217.594 178.586 221.429 170.148L223.73 165.162L184.995 82.7063C182.694 77.7205 184.995 71.5843 189.981 68.8996C194.967 66.5985 201.103 68.8996 203.787 73.8854L234.852 141.768L263.233 76.1865C265.534 70.8172 271.67 68.5161 276.656 70.8172Z" fill="#465B9F"/>
<path d="M322.677 180.12C326.895 178.586 331.114 180.503 333.799 183.955C335.716 186.64 338.401 188.557 341.469 190.475C346.838 193.543 352.975 195.077 359.494 195.077C368.699 195.077 375.986 192.392 381.738 186.64C387.491 180.887 390.176 173.217 390.176 163.629V159.026C380.588 167.464 369.082 171.299 356.043 171.299C346.455 171.299 338.017 168.998 330.347 164.396C322.677 159.793 316.54 153.657 311.938 145.987C307.336 138.316 305.418 129.496 305.418 119.908C305.418 108.402 308.87 98.0472 315.39 88.8428C318.075 85.0076 321.526 81.556 324.978 78.8713C333.799 72.3516 344.537 68.8999 356.043 68.8999C363.33 68.8999 370.233 70.434 376.753 73.1186C383.272 75.8032 389.025 79.6384 393.627 84.6241L395.545 77.3373C396.312 73.8856 399.38 71.5845 403.215 71.5845C407.434 71.5845 410.886 75.0362 410.886 79.2549V160.944C410.886 177.435 406.283 190.475 397.079 199.679C387.875 209.267 375.219 213.869 359.494 213.869C346.455 213.869 335.333 210.801 326.512 204.281C323.06 201.98 320.376 198.912 317.691 195.844C313.472 190.475 315.773 182.421 322.677 180.12ZM335.716 142.535C341.853 148.671 349.139 151.356 358.344 151.356C367.548 151.356 374.835 148.288 380.971 142.535C387.108 136.399 389.792 129.112 389.792 119.908C389.792 110.703 386.724 103.416 380.971 97.2802C375.219 91.1439 367.548 88.4593 358.344 88.4593C349.139 88.4593 341.469 91.5274 335.716 97.2802C329.58 103.416 326.512 110.703 326.512 119.908C326.512 129.112 329.964 136.782 335.716 142.535Z" fill="#D75E4A"/>
<path d="M490.273 80.7891C490.273 86.1584 485.671 90.7606 480.302 90.7606C477.617 90.7606 476.85 90.7606 475.316 90.7606C468.413 91.5276 463.043 93.8287 459.208 98.0474C454.989 103.033 452.688 109.936 452.688 119.524V164.012C452.688 169.765 448.086 174.751 441.95 174.751C436.197 174.751 431.211 170.149 431.211 164.012V79.6386C431.211 75.0364 434.663 71.5847 439.265 71.5847C443.1 71.5847 446.169 74.2693 446.936 77.721L448.853 85.7748C454.99 77.3375 463.427 72.7353 474.549 71.5847C476.083 71.2012 477.617 71.2012 479.535 71.2012C485.287 70.8177 490.273 75.0364 490.273 80.7891Z" fill="#D75E4A"/>
<path d="M572.73 169.765C564.293 174.367 555.088 176.668 544.733 176.668C534.378 176.668 524.79 174.367 516.737 169.765C508.299 165.163 501.779 158.643 496.794 150.206C492.191 142.152 489.507 132.947 489.507 122.592C489.507 112.237 491.808 103.033 496.794 94.9791C501.396 86.9252 508.299 80.4054 516.737 75.8032C525.174 71.201 534.378 68.8999 544.733 68.8999C555.088 68.8999 564.676 71.201 572.73 75.8032C581.167 80.4054 587.687 86.9252 592.673 95.3626C597.275 103.8 599.96 113.004 599.96 122.976C599.96 133.331 597.659 142.535 592.673 150.589C587.687 158.643 581.167 165.163 572.73 169.765ZM520.572 147.137C526.708 153.657 534.762 156.725 544.733 156.725C554.321 156.725 562.375 153.657 568.895 147.137C575.031 140.618 578.483 132.564 578.483 122.976C578.483 113.388 575.415 104.95 568.895 98.8142C562.759 92.2944 554.705 89.2263 544.733 89.2263C535.145 89.2263 527.091 92.2944 520.572 98.8142C514.435 105.334 510.984 113.388 510.984 122.976C510.984 132.564 514.435 140.618 520.572 147.137Z" fill="#D75E4A"/>
<path d="M744.162 71.2009C751.065 71.2009 756.051 78.1042 753.75 84.624L726.52 165.93C724.986 170.915 720 174.367 714.631 174.367C709.646 174.367 705.043 171.299 703.126 166.697L679.731 111.47L656.337 166.697C654.419 171.299 649.817 174.367 644.831 174.367C639.462 174.367 634.86 170.915 632.942 165.93L605.712 85.0075C603.411 78.4877 608.397 71.2009 615.684 71.2009C620.286 71.2009 624.121 73.8855 625.655 78.1042L646.749 140.617L674.745 75.4196C675.512 73.502 677.43 72.3515 679.731 72.3515C681.649 72.3515 683.566 73.502 684.717 75.4196L713.097 141.001L734.574 77.7207C736.108 73.8855 739.943 71.2009 744.162 71.2009Z" fill="#D75E4A"/>
<path d="M818.948 155.191H821.632C826.618 155.191 830.837 159.41 830.837 164.396V165.546C830.837 170.532 826.618 174.751 821.632 174.751H815.113C803.991 174.751 794.786 171.299 788.267 164.779C781.747 158.26 778.295 149.439 778.295 137.933V89.61H765.256C762.187 89.61 759.886 87.3089 759.886 84.2407C759.886 83.0902 760.27 81.5561 761.037 80.7891L787.116 49.7242C788.267 48.1901 790.184 47.4231 792.485 47.4231C796.32 47.4231 799.388 50.4912 799.388 54.3264V71.5847H820.865C825.851 71.5847 830.07 75.8034 830.07 80.7891C830.07 85.7748 825.851 89.9935 820.865 89.9935H799.388V136.399C799.388 142.535 800.923 147.138 804.374 150.589C807.826 153.657 812.428 155.191 818.948 155.191Z" fill="#D75E4A"/>
<path d="M899.104 68.9C910.993 68.9 920.581 72.7352 927.484 80.4056C934.388 88.0759 937.839 98.8144 937.839 111.854V163.245C937.839 168.998 933.237 173.984 927.101 173.984C921.348 173.984 916.362 169.381 916.362 163.245V116.456C916.362 107.252 914.445 99.9649 910.226 94.9792C906.007 89.9935 900.255 87.6924 892.584 87.6924C884.53 87.6924 878.011 90.7605 872.641 96.5133C867.272 102.266 864.971 109.936 864.971 119.141V163.629C864.971 169.381 860.369 174.367 854.233 174.367C848.48 174.367 843.494 169.765 843.494 163.629V44.7385C843.494 38.9857 848.096 34 854.233 34C859.985 34 864.971 38.6022 864.971 44.7385V82.7067C869.19 78.1045 873.792 74.6528 879.545 72.3517C886.065 70.0506 892.584 68.9 899.104 68.9Z" fill="#D75E4A"/>
<path d="M486.055 261.426C476.851 261.426 470.331 255.673 470.331 246.852C470.331 238.415 476.467 233.045 486.822 233.045H500.245V227.676C500.245 221.156 496.41 217.705 489.123 217.705C484.521 217.705 481.453 219.239 478.768 223.074C478.001 224.224 476.851 224.608 475.7 224.608C474.166 224.608 473.016 223.457 473.016 221.923C473.016 219.239 474.933 216.554 478.385 214.637C481.07 213.102 484.521 211.952 489.123 211.952C500.245 211.952 506.382 217.321 506.382 227.293V257.207C506.382 259.508 505.231 260.659 503.314 260.659C501.396 260.659 500.245 259.508 500.245 257.207V253.372H499.862C497.561 258.741 492.192 261.426 486.055 261.426ZM487.589 256.056C494.876 256.056 500.245 251.071 500.245 244.551V238.798H487.206C480.686 238.798 476.851 241.866 476.851 247.235C476.851 252.221 481.07 256.056 487.589 256.056Z" fill="#484D6A"/>
<path d="M520.572 232.662C520.572 220.389 527.858 212.335 539.747 212.335C543.583 212.335 547.418 213.102 550.869 215.404C553.937 217.321 556.622 220.389 556.622 223.457C556.622 224.991 555.855 226.526 553.937 226.526C552.02 226.526 551.253 225.375 550.486 224.224C548.185 220.773 544.733 218.472 539.747 218.472C531.31 218.472 526.708 224.608 526.708 233.429V241.099C526.708 250.304 531.31 256.056 539.747 256.056C544.35 256.056 548.185 254.139 550.486 250.304C551.253 249.153 552.403 248.003 553.937 248.003C555.472 248.003 556.622 248.77 556.622 251.071C556.622 253.755 553.937 256.823 550.869 259.125C547.418 261.042 543.583 261.809 539.747 261.809C527.475 261.809 520.188 253.755 520.188 241.483V232.662H520.572Z" fill="#484D6A"/>
<path d="M584.236 261.426C575.032 261.426 568.512 255.673 568.512 246.852C568.512 238.415 574.648 233.045 585.003 233.045H598.426V227.676C598.426 221.156 594.591 217.705 587.304 217.705C582.702 217.705 579.634 219.239 576.949 223.074C576.182 224.224 575.031 224.608 573.881 224.608C572.347 224.608 571.196 223.457 571.196 221.923C571.196 219.239 573.114 216.554 576.566 214.637C579.25 213.102 582.702 211.952 587.304 211.952C598.426 211.952 604.562 217.321 604.562 227.293V257.207C604.562 259.508 603.412 260.659 601.494 260.659C599.577 260.659 598.426 259.508 598.426 257.207V253.372H598.043C595.741 258.741 590.372 261.426 584.236 261.426ZM585.77 256.056C593.057 256.056 598.426 251.071 598.426 244.551V238.798H585.386C578.867 238.798 575.031 241.866 575.031 247.235C575.415 252.221 579.634 256.056 585.77 256.056Z" fill="#484D6A"/>
<path d="M637.162 261.426C626.04 261.426 618.753 253.755 618.753 241.866V231.895C618.753 219.622 626.423 212.335 637.162 212.335C644.449 212.335 649.818 216.171 651.352 220.773H651.735V198.529C651.735 196.228 652.886 195.077 654.804 195.077C656.721 195.077 657.872 196.611 657.872 198.529V257.59C657.872 259.892 656.721 261.042 654.804 261.042C652.886 261.042 651.735 259.892 651.735 257.59V252.605H651.352C650.585 257.207 645.216 261.426 637.162 261.426ZM638.312 256.056C646.75 256.056 651.735 249.92 651.735 241.099V232.278C651.735 224.224 645.983 218.088 637.929 218.088C630.258 218.088 624.889 223.841 624.889 233.812V240.332C625.273 250.304 630.258 256.056 638.312 256.056Z" fill="#484D6A"/>
<path d="M673.211 233.429C673.211 220.773 681.265 212.335 692.77 212.335C703.892 212.335 711.563 220.389 711.563 232.662C711.563 236.881 710.796 238.415 707.727 238.415H679.347V241.099C679.347 250.304 684.716 256.056 693.537 256.056C698.523 256.056 701.975 253.755 704.276 251.454C706.193 249.537 706.96 249.153 708.111 249.153C709.645 249.153 710.796 250.304 710.796 251.838C710.796 252.988 710.029 255.289 708.111 256.823C705.426 259.892 699.674 261.809 693.537 261.809C680.881 261.809 673.594 254.139 673.594 240.716V233.429H673.211ZM705.043 233.045C705.043 223.841 700.057 218.088 692.387 218.088C684.716 218.088 679.347 223.841 679.347 233.045H705.043Z" fill="#484D6A"/>
<path d="M786.35 261.042C784.432 261.042 783.282 259.892 783.282 257.59V228.827C783.282 221.923 779.063 217.705 772.543 217.705C765.64 217.705 761.038 223.074 761.038 229.594V257.59C761.038 259.892 759.887 261.042 757.97 261.042C756.052 261.042 754.901 259.892 754.901 257.59V229.21C754.901 222.307 750.683 218.088 743.779 218.088C736.876 218.088 732.274 223.074 732.274 229.977V257.59C732.274 259.892 731.123 261.042 729.206 261.042C727.288 261.042 726.138 259.892 726.138 257.59V216.171C726.138 213.87 727.288 212.719 729.206 212.719C731.123 212.719 732.274 214.253 732.274 216.171V220.773H732.657C734.192 215.787 738.794 212.335 745.697 212.335C752.6 212.335 757.586 216.171 759.12 221.54H759.504C761.421 216.171 766.79 212.335 774.077 212.335C783.665 212.335 789.801 217.705 789.801 227.293V257.59C789.418 259.892 788.267 261.042 786.35 261.042Z" fill="#484D6A"/>
<path d="M805.525 272.164C806.292 272.164 807.059 272.164 808.21 272.164C811.662 272.164 814.73 269.096 815.88 264.494L816.647 261.425L800.923 218.472C800.54 217.705 800.54 216.554 800.54 216.17C800.54 214.253 802.074 213.102 803.608 213.102C805.142 213.102 806.292 214.253 807.059 216.17L820.099 254.139H820.482L833.138 216.17C833.906 213.869 835.056 213.102 836.59 213.102C838.508 213.102 839.658 214.253 839.658 216.17C839.658 216.937 839.658 217.705 839.275 218.472L822.4 264.877C819.332 274.081 814.73 277.533 807.826 277.533C805.909 277.533 804.375 277.15 803.608 276.383C802.841 275.999 802.841 275.232 802.841 274.465C802.457 272.931 803.608 272.164 805.525 272.164Z" fill="#484D6A"/>
<path d="M1076.29 124.51L1048.29 79.255L1047.91 78.8715C1045.61 75.4199 1041.77 73.8858 1037.94 73.8858C1033.72 73.5023 1029.5 74.2693 1026.05 77.3375L982.327 113.005C978.491 116.073 979.642 122.209 984.244 123.743L1014.93 134.098C1014.93 134.481 1014.54 135.249 1014.54 135.632C1013.01 139.851 1011.86 144.453 1010.32 148.288C1009.56 150.206 1008.79 152.507 1007.64 154.424L1004.57 160.177C1002.65 164.396 999.968 167.847 997.667 171.683C995.366 175.518 992.298 178.586 989.613 182.038C986.545 185.106 983.477 188.557 980.409 191.626C976.957 194.31 973.506 197.378 970.054 200.063C955.48 210.801 938.606 217.705 920.58 222.307C902.939 227.676 883.763 229.21 864.97 230.744H864.203C858.451 231.128 854.232 236.113 854.232 241.866C854.615 247.619 859.601 252.221 865.354 251.838C885.68 250.687 906.007 249.153 925.95 244.167C945.892 239.182 965.835 231.895 983.477 219.622C987.696 216.554 991.915 213.102 996.133 209.651C999.968 206.199 1003.8 202.364 1007.64 198.529C1011.09 194.31 1014.54 190.475 1017.61 185.873C1020.68 181.271 1023.75 177.052 1026.05 172.066L1029.88 164.779C1031.03 162.478 1032.18 159.794 1032.95 157.492C1035.25 152.507 1036.79 147.521 1038.32 142.535C1040.62 134.481 1042.54 126.811 1044.07 118.757L1045.22 116.84L1057.88 135.249C1060.95 139.851 1067.08 141.001 1071.69 138.317C1077.82 135.632 1079.36 129.112 1076.29 124.51Z" fill="#00D0B2"/>
<path d="M438.116 261.426H437.349C430.062 261.426 424.309 255.673 424.309 248.386C424.309 241.099 430.062 235.346 437.349 235.346H438.116C445.403 235.346 451.155 241.099 451.155 248.386C451.155 255.673 445.019 261.426 438.116 261.426Z" fill="#00D0B2"/>
</svg>
